<?xml version="1.0" standalone="no"?>
<!DOCTYPE svg PUBLIC "-//W3C//DTD SVG 20010904//EN"
 "http://www.w3.org/TR/2001/REC-SVG-20010904/DTD/svg10.dtd">
<svg version="1.0" xmlns="http://www.w3.org/2000/svg"
 width="436.000000pt" height="436.000000pt" viewBox="0 0 436.000000 436.000000"
 preserveAspectRatio="xMidYMid meet">

<g transform="translate(0.000000,436.000000) scale(0.100000,-0.100000)"
fill="#000000" stroke="none">
<path d="M2091 3933 c0 -29 3 -53 7 -53 4 0 6 17 4 38 -6 64 -10 69 -11 15z"/>
<path d="M1895 3901 c2 -48 8 -68 21 -78 10 -7 20 -9 23 -4 3 5 17 11 31 14
17 3 11 5 -17 6 l-41 1 -11 63 -10 62 4 -64z"/>
<path d="M2033 3906 c1 -50 -2 -61 -19 -67 -17 -7 -17 -8 4 -8 30 -1 37 20 24
82 l-10 52 1 -59z"/>
<path d="M1810 3931 c0 -5 -10 -12 -22 -14 -20 -4 -20 -4 4 -6 28 -1 45 13 28
24 -5 3 -10 2 -10 -4z"/>
<path d="M1585 3873 c-35 -9 -46 -23 -30 -39 19 -19 65 -18 65 1 0 8 -5 15
-12 15 -6 0 -3 7 8 15 20 15 10 18 -31 8z m-1 -29 c3 -8 2 -12 -4 -9 -6 3 -10
10 -10 16 0 14 7 11 14 -7z"/>
<path d="M2290 3860 c0 -5 5 -10 10 -10 6 0 10 5 10 10 0 6 -4 10 -10 10 -5 0
-10 -4 -10 -10z"/>
<path d="M1850 3778 c9 -46 5 -61 -10 -38 -6 8 -10 11 -10 6 0 -6 -7 -1 -16
10 -8 10 -13 13 -9 7 3 -7 0 -13 -7 -13 -9 0 -9 -3 2 -10 12 -8 11 -10 -7 -10
-25 0 -29 10 -11 28 14 14 -1 16 -22 2 -12 -8 -13 -13 -3 -29 10 -16 9 -20 -4
-25 -18 -7 -30 6 -39 42 -3 12 -10 22 -14 22 -12 0 -19 -26 -13 -49 3 -12 1
-21 -6 -21 -6 0 -11 5 -11 11 0 8 -5 8 -15 -1 -12 -10 -15 -9 -16 6 -1 28 -10
78 -14 83 -2 2 -11 1 -20 -3 -15 -5 -15 -7 -1 -22 9 -8 16 -21 16 -29 0 -7 9
-34 20 -59 l19 -46 -56 -26 c-97 -42 -94 -43 -130 30 -30 60 -31 66 -15 75 9
6 12 11 5 11 -6 0 -15 -5 -18 -10 -4 -6 -11 -8 -16 -5 -16 10 -10 -21 9 -46
27 -35 53 -122 40 -130 -6 -4 -7 -12 -3 -19 8 -14 -39 -60 -62 -60 -7 0 -13 9
-13 20 0 17 5 19 25 14 14 -3 25 -3 25 1 0 4 -14 37 -32 73 -20 43 -31 80 -30
104 2 44 -14 50 -44 15 -11 -12 -35 -35 -54 -50 l-35 -29 46 26 c25 14 49 26
52 26 8 0 67 -114 67 -128 0 -17 -144 -94 -180 -96 -19 -1 -41 -5 -48 -10 -8
-5 -22 -1 -35 10 -13 11 -11 7 6 -12 15 -16 27 -35 27 -40 0 -6 -23 -30 -51
-54 l-51 -42 -41 30 c-70 50 -70 56 -2 117 57 51 61 53 80 37 16 -14 18 -14 7
-1 -16 21 -5 127 16 154 10 12 11 15 2 8 -8 -7 -20 -13 -27 -13 -17 0 -53 -31
-53 -46 0 -6 -12 -19 -26 -29 -65 -42 -244 -241 -339 -375 -21 -30 -44 -60
-51 -66 -14 -11 -97 -174 -109 -214 -4 -14 -15 -32 -24 -40 -25 -24 -45 -81
-45 -132 -1 -27 -5 -48 -9 -48 -5 0 -6 -4 -2 -9 3 -5 1 -12 -4 -16 -6 -3 -10
-30 -10 -61 1 -30 -4 -60 -9 -67 -6 -7 -12 -31 -15 -54 -3 -31 -1 -40 10 -36
7 3 13 1 13 -5 0 -6 -6 -12 -12 -14 -10 -4 -9 -9 3 -20 22 -22 37 -10 47 37
l8 40 64 -3 c35 -1 65 -4 67 -5 2 -2 0 -35 -4 -73 l-8 -69 -75 3 c-87 3 -104
-4 -94 -41 6 -26 9 -27 76 -27 l69 0 -3 -67 -3 -68 -65 -5 c-71 -5 -66 -1 -62
-70 2 -25 3 -25 75 -22 l73 3 10 -54 10 -55 -29 -6 c-16 -3 -42 -6 -57 -6 -48
0 -56 -7 -52 -48 3 -20 10 -40 16 -44 8 -6 7 -11 -3 -17 -7 -5 -10 -14 -7 -20
4 -6 10 -9 14 -7 4 2 5 -23 4 -57 -4 -55 8 -113 38 -192 16 -40 23 -60 24 -65
6 -22 35 -50 52 -50 17 0 25 -10 35 -45 7 -25 17 -45 21 -45 4 0 8 -7 8 -15 0
-8 3 -14 8 -14 20 3 32 -2 32 -15 0 -22 78 -96 101 -96 11 0 43 12 71 26 l52
26 38 -40 c21 -23 38 -45 38 -49 0 -5 -22 -31 -50 -58 -48 -47 -50 -48 -65
-30 -8 11 -15 15 -15 9 0 -15 29 -39 37 -30 4 3 16 -3 28 -14 l22 -20 43 32
c24 18 49 37 56 42 19 15 104 -63 98 -89 -10 -38 -9 -50 4 -47 6 1 12 -8 12
-19 0 -19 2 -20 17 -8 15 13 16 11 10 -11 -6 -23 -4 -23 21 7 l27 33 63 -40
c34 -22 62 -43 62 -47 0 -5 -10 -24 -22 -43 -27 -45 -52 -103 -40 -96 5 3 15
-6 22 -19 21 -40 37 -30 71 43 45 97 40 94 119 59 39 -17 70 -36 70 -41 0 -6
-9 -38 -19 -71 -19 -61 -15 -85 14 -85 8 0 15 -4 17 -9 2 -4 21 -11 43 -14 22
-4 34 -4 28 -1 -7 3 -13 13 -13 23 0 16 29 111 36 120 2 2 33 -5 69 -14 l66
-18 -6 -41 c-4 -23 -9 -56 -12 -74 -4 -25 -2 -32 11 -32 9 0 19 -7 22 -15 7
-17 34 -20 34 -4 0 8 4 8 15 -1 25 -20 44 10 47 76 l3 59 40 3 c49 4 127 -7
121 -17 -3 -4 -6 -40 -7 -79 -1 -40 -6 -75 -12 -79 -18 -11 16 -21 41 -12 16
6 29 6 37 -1 9 -8 18 -6 30 6 9 10 20 13 23 8 4 -5 20 -10 35 -11 30 -1 44 -9
34 -19 -4 -4 -14 -1 -23 6 -11 10 -18 10 -22 3 -4 -6 -18 -13 -32 -16 -14 -3
-3 -4 23 -4 30 0 52 -4 56 -12 6 -9 10 -10 15 -2 4 6 13 9 19 5 7 -3 4 1 -5 8
-11 10 -14 19 -7 29 7 11 9 11 9 -3 0 -20 20 -25 20 -5 0 8 3 9 8 1 8 -13 72
-15 72 -2 0 4 -9 8 -19 8 -10 0 -21 7 -25 15 -6 17 9 21 19 5 4 -6 12 -6 23
-1 9 5 25 12 34 15 11 3 15 11 12 21 -4 8 -1 15 6 15 7 0 10 10 6 28 -2 15 -7
48 -11 74 l-6 47 38 10 c101 26 89 32 114 -52 21 -75 22 -76 60 -82 22 -4 39
-11 39 -16 0 -5 5 -9 11 -9 8 0 8 5 -1 15 -12 15 -11 16 13 19 6 0 12 9 12 19
0 10 11 25 25 33 l25 15 -25 -7 c-14 -3 -29 -7 -34 -8 -10 -1 -48 103 -44 122
4 17 127 67 138 56 5 -5 18 -31 29 -59 10 -27 24 -49 30 -47 6 1 11 -2 11 -8
0 -5 7 -10 15 -10 8 0 14 6 13 12 -2 7 7 14 19 16 21 3 21 3 -8 66 -31 65 -33
111 -7 128 10 6 7 10 -9 14 -21 6 -32 24 -15 24 4 0 18 10 32 21 14 11 0 6
-30 -11 -151 -86 -324 -154 -480 -187 -66 -14 -129 -18 -285 -18 -176 1 -212
3 -295 24 -206 51 -428 150 -565 253 -276 207 -476 522 -566 888 -31 127 -34
408 -6 540 80 374 279 694 566 911 182 138 431 245 646 280 90 14 102 18 50
14 -48 -4 -65 -2 -55 5 12 7 8 11 -17 16 -18 4 -33 13 -33 20 0 8 4 14 8 14 5
0 9 14 10 31 1 26 -2 30 -19 26 -15 -4 -19 -2 -15 9 7 17 -14 54 -30 54 -8 0
-9 -13 -4 -42z m-126 -99 c-2 -4 5 -5 16 -2 11 3 20 0 20 -6 0 -6 -4 -11 -10
-11 -5 0 -10 -4 -10 -10 0 -5 6 -7 13 -5 16 6 44 -12 33 -22 -5 -4 -11 -2 -13
5 -4 9 -8 10 -18 2 -28 -23 -74 48 -48 73 8 9 24 -14 17 -24z m121 -29 c-3 -5
-12 -10 -20 -10 -8 0 -17 5 -20 10 -4 6 5 10 20 10 15 0 24 -4 20 -10z m-215
-59 c0 -14 -16 -22 -58 -27 -34 -4 -36 -4 -17 10 11 8 24 11 29 6 5 -5 15 -6
23 -3 12 5 12 7 1 14 -10 7 -9 9 5 9 9 0 17 -4 17 -9z m-547 -67 c9 -9 -4 -34
-18 -34 -7 0 -15 -6 -18 -12 -2 -7 -8 -10 -12 -6 -4 4 0 14 9 23 9 9 16 21 16
26 0 10 14 12 23 3z m-94 -258 l44 -45 -46 -47 -46 -47 -51 33 c-29 19 -47 37
-43 44 19 35 79 106 88 106 6 0 30 -20 54 -44z m-145 -172 c25 -14 48 -29 50
-33 3 -4 -8 -27 -24 -52 -17 -24 -31 -48 -33 -54 -5 -13 -128 25 -134 42 -5
14 71 123 86 123 5 0 29 -12 55 -26z m-113 -200 c27 -9 49 -20 49 -24 0 -4
-11 -33 -25 -65 l-25 -57 -43 7 c-54 9 -90 23 -85 33 2 4 14 33 27 65 14 31
31 57 38 57 8 0 36 -7 64 -16z m-91 -208 c32 -8 54 -18 52 -25 -13 -58 -27
-107 -33 -115 -4 -4 -35 -5 -68 -1 -46 5 -61 11 -61 23 0 33 33 132 44 132 6
-1 36 -7 66 -14z m41 -927 c10 -35 15 -67 11 -70 -7 -5 -105 -29 -121 -29 -11
0 -44 127 -38 144 5 13 81 26 121 21 5 -1 17 -30 27 -66z m75 -215 l31 -66
-34 -14 c-19 -8 -50 -16 -69 -17 -34 -2 -36 0 -51 43 -8 25 -19 49 -24 55 -19
20 -7 35 39 49 73 23 75 22 108 -50z m1568 -909 c-7 -16 -24 -21 -24 -6 0 8 7
13 27 20 1 1 0 -6 -3 -14z m-74 -7 c0 6 5 12 11 12 6 0 9 -7 5 -15 -6 -16 29
-55 50 -55 6 0 16 -6 23 -13 14 -18 -5 -37 -37 -37 -13 0 -32 -4 -42 -10 -30
-16 -50 11 -40 54 4 19 5 37 3 40 -3 3 -2 13 1 23 6 15 8 15 16 3 7 -10 10
-11 10 -2z m90 -29 c0 -4 -4 -11 -10 -14 -5 -3 -10 0 -10 7 0 11 -2 11 -9 0
-6 -11 -10 -10 -19 1 -9 11 -6 13 18 13 17 0 30 -3 30 -7z m-125 -99 c3 -5 -1
-10 -9 -10 -9 0 -16 5 -16 10 0 6 4 10 9 10 6 0 13 -4 16 -10z"/>
<path d="M945 3160 c-3 -5 -1 -10 4 -10 6 0 11 5 11 10 0 6 -2 10 -4 10 -3 0
-8 -4 -11 -10z"/>
<path d="M736 3031 c-4 -7 -5 -15 -2 -18 9 -9 19 4 14 18 -4 11 -6 11 -12 0z"/>
<path d="M2262 575 c4 -4 3 -14 -3 -21 -7 -9 -6 -14 3 -20 7 -4 10 -4 6 1 -4
4 -3 14 3 21 7 9 6 14 -3 20 -7 4 -10 4 -6 -1z"/>
<path d="M1950 3758 c0 -9 5 -20 10 -23 13 -8 13 5 0 25 -8 13 -10 13 -10 -2z"/>
<path d="M1276 3717 c-14 -10 -12 -12 14 -13 31 -1 40 10 16 19 -8 3 -21 0
-30 -6z"/>
<path d="M2048 3703 c7 -3 16 -2 19 1 4 3 -2 6 -13 5 -11 0 -14 -3 -6 -6z"/>
<path d="M2080 3693 c0 -7 -9 -13 -20 -13 -11 0 -20 -4 -20 -9 0 -5 9 -7 20
-4 25 7 50 -19 50 -52 0 -31 41 -75 70 -75 29 0 62 19 55 31 -4 5 -1 8 7 7 8
-2 14 10 16 35 4 46 -12 49 -24 5 -7 -24 -16 -34 -34 -36 -24 -2 -24 -2 -7 12
18 14 18 15 -2 26 -12 6 -21 17 -21 25 0 7 -5 17 -12 21 -6 4 -8 3 -4 -4 3 -6
2 -13 -4 -17 -6 -3 -13 1 -16 9 -3 9 -11 16 -16 16 -6 0 -17 8 -24 18 -8 10
-13 12 -14 5z"/>
<path d="M2310 3670 c0 -5 11 -10 24 -10 14 0 28 5 31 10 4 6 -7 10 -24 10
-17 0 -31 -4 -31 -10z"/>
<path d="M2610 3660 c-14 -9 -7 -14 13 -11 4 1 10 -5 13 -13 3 -8 11 -14 17
-12 7 1 2 -2 -10 -8 -13 -5 -23 -13 -23 -17 0 -5 -23 -1 -51 7 -28 8 -56 13
-62 11 -7 -2 4 -7 23 -12 77 -17 220 -70 310 -115 199 -100 393 -269 512 -444
65 -97 92 -131 63 -79 -20 34 -20 34 20 102 7 13 21 29 30 34 14 7 15 11 4 17
-10 7 -10 11 1 25 12 15 10 15 -23 -1 -20 -10 -38 -16 -40 -13 -1 2 -19 25
-40 51 -20 25 -37 51 -37 56 0 6 12 20 28 31 15 12 19 18 10 15 -12 -4 -18 -1
-18 9 0 8 -7 18 -16 21 -14 5 -14 9 -3 24 7 9 0 5 -17 -10 -17 -16 -34 -28
-40 -28 -5 0 -33 23 -62 50 -29 28 -61 50 -71 50 -10 0 -21 8 -23 18 -3 10
-23 27 -44 38 -21 11 -57 31 -79 44 l-40 23 34 -30 c21 -17 31 -34 27 -41 -10
-17 -32 -15 -50 4 -9 8 -20 13 -26 9 -5 -3 -26 10 -47 30 -21 19 -43 33 -50
31 -6 -3 -14 0 -17 7 -3 9 -6 9 -13 0 -6 -9 -16 -8 -41 4 -21 10 -29 19 -22
23 17 11 -4 22 -25 14 -15 -6 -16 -4 -5 15 9 18 18 21 38 17 15 -3 3 5 -27 19
-29 14 -57 22 -62 19 -5 -3 -9 0 -9 6 0 6 -5 8 -11 4 -6 -3 -14 -2 -18 4 -4 7
-12 8 -21 2z m100 -60 c0 -5 -7 -7 -15 -4 -8 4 -15 8 -15 10 0 2 7 4 15 4 8 0
15 -4 15 -10z m730 -485 c0 -8 -4 -15 -10 -15 -5 0 -7 7 -4 15 4 8 8 15 10 15
2 0 4 -7 4 -15z"/>
<path d="M2323 3643 c9 -2 23 -2 30 0 6 3 -1 5 -18 5 -16 0 -22 -2 -12 -5z"/>
<path d="M2513 3633 c9 -2 23 -2 30 0 6 3 -1 5 -18 5 -16 0 -22 -2 -12 -5z"/>
<path d="M2916 3545 c-3 -9 1 -18 10 -22 21 -8 25 -1 9 20 -11 15 -13 16 -19
2z"/>
<path d="M1225 3513 c15 -24 30 -43 32 -43 7 0 -31 61 -46 73 -8 7 -2 -7 14
-30z"/>
<path d="M1450 3520 c0 -5 5 -10 11 -10 5 0 7 5 4 10 -3 6 -8 10 -11 10 -2 0
-4 -4 -4 -10z"/>
<path d="M2028 3344 c-288 -39 -594 -210 -769 -430 -27 -34 -49 -66 -49 -70 0
-5 5 -1 11 9 5 9 20 17 32 17 17 0 19 2 8 9 -11 7 -10 12 8 22 11 8 21 19 21
25 0 29 244 234 279 234 5 0 11 4 13 9 5 13 140 81 150 75 4 -3 8 0 8 5 0 6
14 11 30 11 20 0 30 -5 30 -15 0 -8 5 -15 11 -15 6 0 9 12 7 27 -2 14 2 28 8
30 15 5 16 -69 1 -79 -8 -5 -3 -8 12 -8 19 0 21 -3 12 -14 -7 -8 -11 -25 -10
-38 4 -44 -1 -57 -23 -61 l-23 -4 23 -2 c15 -1 22 -7 22 -21 0 -11 -4 -20 -10
-20 -5 0 -10 4 -10 9 0 5 -7 12 -16 15 -9 4 -13 2 -8 -5 4 -7 1 -10 -7 -7 -8
3 -13 11 -11 17 1 6 -8 11 -20 11 -16 0 -19 -3 -11 -11 17 -17 -27 -52 -44
-37 -9 7 -13 7 -13 -1 0 -8 -8 -10 -22 -5 l-23 7 20 -23 c11 -13 14 -20 8 -16
-8 4 -13 1 -13 -8 0 -9 5 -16 10 -16 6 0 10 -7 10 -15 0 -9 -6 -12 -16 -8 -14
5 -15 3 -5 -15 7 -13 8 -22 2 -22 -5 0 -15 13 -22 29 -12 26 -14 28 -26 13 -8
-12 -12 -13 -13 -4 0 10 -3 10 -14 0 -10 -9 -10 -15 -3 -20 8 -5 6 -13 -6 -26
-10 -10 -16 -30 -15 -43 2 -19 -1 -23 -17 -21 -16 2 -17 1 -6 -7 11 -7 12 -13
3 -24 -9 -11 -8 -13 8 -12 11 1 23 4 26 8 12 12 24 8 24 -7 0 -8 -6 -17 -12
-19 -7 -3 -8 -6 -3 -6 6 -1 21 9 35 22 14 12 21 18 14 14 -14 -9 -28 8 -19 23
3 5 13 6 23 3 15 -6 15 -5 3 10 -12 15 -11 17 3 17 10 0 15 -4 12 -8 -2 -4 -2
-13 2 -19 5 -7 35 7 86 42 77 51 79 54 79 92 0 22 -3 44 -6 49 -3 5 3 10 13
10 12 0 17 -7 16 -23 0 -13 -5 -23 -10 -23 -5 0 -3 -6 3 -13 6 -8 7 -18 3 -22
-4 -5 5 -2 19 8 141 87 188 120 184 127 -3 5 0 12 6 16 8 4 9 3 5 -4 -10 -17
9 -15 23 2 9 11 9 15 -1 20 -7 3 -4 4 7 1 11 -2 31 5 45 16 23 18 23 19 3 9
-14 -6 -23 -7 -23 -1 0 5 5 11 12 13 6 2 13 14 14 26 3 15 0 20 -11 16 -8 -4
-15 -1 -15 5 0 6 4 11 9 11 5 0 12 10 14 23 4 19 4 18 6 -5 0 -16 6 -28 11
-28 6 0 10 -6 9 -12 -3 -23 1 -38 9 -36 4 2 23 -7 43 -20 22 -13 44 -20 55
-16 15 4 16 4 5 -4 -15 -11 -25 -3 344 -242 279 -181 287 -186 322 -204 17 -9
39 -26 47 -38 11 -15 16 -18 16 -8 0 8 12 21 27 27 23 11 28 10 42 -10 9 -12
19 -33 22 -47 l7 -25 1 28 c1 30 21 38 21 8 0 -11 4 -22 9 -25 4 -3 6 6 3 19
-3 20 0 25 15 25 11 0 23 -3 26 -6 10 -11 -13 -44 -36 -54 -16 -6 -2 -9 48 -9
48 0 64 3 50 9 -18 8 -17 9 8 9 15 1 27 -3 27 -9 0 -5 4 -10 10 -10 5 0 7 8 4
18 -5 14 -3 14 10 -2 26 -32 19 -9 -28 90 -49 103 -103 187 -115 179 -5 -2 -8
2 -7 10 1 18 -86 132 -128 165 -28 21 -29 22 -12 2 11 -13 14 -22 7 -22 -18 0
-54 37 -47 48 3 5 -2 16 -11 23 -13 11 -15 11 -9 1 7 -11 4 -11 -12 -1 -12 7
-19 15 -17 19 1 3 -14 17 -35 32 -33 23 -37 24 -33 7 3 -10 9 -16 14 -13 5 3
9 -1 9 -8 0 -8 5 -19 11 -25 18 -18 20 -73 3 -73 -8 0 -14 -10 -14 -22 0 -18
2 -20 10 -8 5 8 12 12 15 8 3 -3 0 -12 -8 -19 -7 -8 -12 -20 -9 -28 3 -8 0
-11 -7 -7 -6 4 -11 14 -11 22 0 14 -11 18 -37 15 -7 -1 -13 2 -13 6 0 5 -9 14
-20 21 -19 11 -20 10 -17 -28 3 -33 0 -40 -12 -38 -9 2 -17 16 -19 32 -3 21
-6 25 -12 16 -5 -7 -16 -15 -25 -16 -15 -2 -15 -1 -1 15 15 16 15 19 1 31 -10
8 -15 9 -15 1 0 -6 -6 -11 -13 -11 -7 0 -14 -11 -15 -26 -1 -14 2 -23 8 -19
19 12 10 -12 -12 -31 -18 -16 -20 -16 -15 -3 8 23 -40 80 -60 72 -8 -3 -19 0
-24 8 -7 11 -9 11 -9 -3 0 -9 9 -20 21 -23 16 -5 18 -10 10 -18 -9 -9 -14 -8
-21 3 -8 13 -10 12 -10 -3 0 -31 -25 -12 -28 21 -3 32 -32 47 -32 17 0 -19 -9
-19 -34 0 -19 14 -19 15 -2 15 15 0 16 3 6 15 -7 8 -16 15 -21 15 -5 0 -6 -7
-3 -15 8 -21 -8 -19 -32 3 -11 11 -26 22 -34 25 -15 5 28 12 63 9 9 -1 17 2
17 7 0 13 -64 42 -68 31 -2 -6 -8 -10 -13 -10 -6 0 -2 11 8 24 12 16 25 22 41
20 15 -3 21 -1 17 6 -3 5 -14 10 -23 10 -15 1 -15 2 2 15 28 22 43 18 48 -10
3 -13 1 -22 -3 -19 -5 3 -9 1 -9 -4 0 -6 11 -13 24 -16 13 -3 27 -16 31 -28
l8 -23 4 23 c3 14 10 22 18 18 7 -2 16 -2 19 1 10 10 -43 33 -62 27 -10 -4
-13 -2 -7 3 14 11 18 36 4 28 -7 -5 -10 2 -7 21 2 15 -2 29 -10 31 -7 3 -10
-1 -6 -11 4 -10 1 -16 -9 -16 -9 0 -22 -2 -30 -5 -8 -4 -14 0 -14 10 0 8 6 15
14 15 23 0 14 20 -9 21 -16 1 -18 3 -6 6 22 6 30 30 13 37 -15 5 -9 46 7 46 5
0 7 -4 4 -9 -8 -12 30 -21 41 -10 6 6 23 5 42 -2 17 -6 34 -9 37 -7 2 3 -33
15 -78 27 -46 12 -103 27 -128 34 -60 16 -131 11 -123 -9 3 -7 0 -14 -6 -14
-6 0 -11 9 -11 20 0 24 -32 25 -182 4z m290 -59 c-2 -46 -18 -46 -18 0 0 25
-4 35 -16 35 -8 0 -12 5 -9 10 4 7 13 7 25 0 14 -7 19 -20 18 -45z m-338 25
c-8 -5 -17 -7 -19 -4 -3 3 1 9 9 14 8 5 17 7 19 4 3 -3 -1 -9 -9 -14z m205
-11 c7 -20 25 -27 25 -9 0 6 5 10 11 10 6 0 9 -8 7 -17 -2 -12 -13 -18 -29
-18 -21 -1 -25 3 -21 18 3 12 -2 20 -17 24 -11 3 -18 9 -16 14 9 13 34 -1 40
-22z m-105 11 c0 -5 -4 -10 -10 -10 -5 0 -10 5 -10 10 0 6 5 10 10 10 6 0 10
-4 10 -10z m314 -9 c3 -5 -1 -14 -8 -20 -12 -10 -13 -8 -9 8 6 23 9 25 17 12z
m-296 -37 c3 -15 1 -17 -9 -6 -7 6 -21 12 -32 12 -10 0 -15 4 -12 10 10 16 50
4 53 -16z m60 9 c2 -8 -5 -13 -17 -13 -12 0 -21 6 -21 16 0 18 31 15 38 -3z
m-258 -18 c11 -13 11 -18 0 -28 -10 -10 -12 -9 -7 6 4 11 1 17 -8 17 -8 0 -15
5 -15 10 0 15 16 12 30 -5z m105 -34 c2 -13 -4 -21 -18 -25 -23 -6 -40 4 -19
11 6 3 12 19 12 36 1 27 2 29 11 14 6 -9 12 -26 14 -36z m410 21 c-3 -3 -11 0
-18 7 -9 10 -8 11 6 5 10 -3 15 -9 12 -12z m-370 -2 c3 -5 2 -10 -4 -10 -5 0
-13 5 -16 10 -3 6 -2 10 4 10 5 0 13 -4 16 -10z m30 0 c-3 -5 2 -11 12 -11 17
-1 17 -2 1 -6 -10 -2 -18 -9 -18 -14 0 -5 -7 -9 -15 -9 -8 0 -15 5 -15 10 0 6
7 10 15 10 9 0 12 6 9 15 -4 8 -1 15 6 15 6 0 8 -4 5 -10z m155 -40 c0 -27 -4
-50 -10 -50 -5 0 -10 23 -10 50 0 28 5 50 10 50 6 0 10 -22 10 -50z m145 31
c-3 -6 -11 -11 -16 -11 -5 0 -4 6 3 14 14 16 24 13 13 -3z m-55 -42 c0 -21 -4
-39 -10 -39 -5 0 -10 21 -10 46 0 27 4 43 10 39 6 -3 10 -24 10 -46z m-124 4
c-10 -10 -19 5 -10 18 6 11 8 11 12 0 2 -7 1 -15 -2 -18z m204 -3 c0 -5 -4
-10 -10 -10 -5 0 -10 5 -10 10 0 6 5 10 10 10 6 0 10 -4 10 -10z m-345 -10 c3
-5 1 -10 -4 -10 -6 0 -11 5 -11 10 0 6 2 10 4 10 3 0 8 -4 11 -10z m-61 -25
c3 -9 0 -15 -8 -15 -7 0 -13 7 -13 15 0 8 4 15 8 15 4 0 9 -7 13 -15z m-69 -5
c3 -5 1 -10 -4 -10 -6 0 -11 5 -11 10 0 6 2 10 4 10 3 0 8 -4 11 -10z m155
-10 c0 -5 -4 -10 -10 -10 -5 0 -10 5 -10 10 0 6 5 10 10 10 6 0 10 -4 10 -10z
m240 -29 c0 -10 7 -24 15 -31 8 -7 15 -17 15 -23 0 -7 -14 3 -30 22 -17 18
-28 37 -25 42 10 16 25 10 25 -10z m-290 -35 c0 -3 -4 -8 -10 -11 -5 -3 -10
-1 -10 4 0 6 5 11 10 11 6 0 10 -2 10 -4z m928 -70 c6 -14 22 -32 36 -41 31
-21 27 -49 -7 -53 -15 -2 -27 1 -27 7 0 17 -34 18 -54 2 -18 -15 -18 -15 -5 9
7 14 12 31 11 38 -4 19 15 14 20 -6 3 -10 11 -19 19 -19 8 0 22 -4 32 -8 10
-4 17 -3 17 4 0 6 -6 11 -13 11 -7 0 -23 11 -35 25 -12 14 -27 25 -33 25 -8 0
-8 5 1 15 17 21 25 19 38 -9z m-1228 -16 c0 -13 -11 -13 -30 0 -12 8 -11 10 8
10 12 0 22 -4 22 -10z m885 -49 c4 -21 -9 -29 -19 -12 -6 10 4 45 11 38 2 -2
5 -14 8 -26z m235 -1 c0 -5 -4 -10 -9 -10 -6 0 -13 5 -16 10 -3 6 1 10 9 10 9
0 16 -4 16 -10z m-1070 -10 c0 -5 -7 -7 -15 -4 -8 4 -15 8 -15 10 0 2 7 4 15
4 8 0 15 -4 15 -10z m1160 -30 c0 -5 -4 -10 -9 -10 -6 0 -13 5 -16 10 -3 6 1
10 9 10 9 0 16 -4 16 -10z m-260 -10 c0 -5 -5 -10 -11 -10 -5 0 -7 5 -4 10 3
6 8 10 11 10 2 0 4 -4 4 -10z m85 0 c3 -5 1 -10 -4 -10 -6 0 -11 5 -11 10 0 6
2 10 4 10 3 0 8 -4 11 -10z m-1168 -20 c-1 -11 -5 -20 -9 -20 -10 0 -10 4 -2
24 8 22 13 20 11 -4z m1390 -10 c-2 -29 -17 -24 -17 6 0 14 4 23 9 19 6 -3 9
-14 8 -25z m83 10 c0 -11 -4 -20 -9 -20 -5 0 -7 9 -4 20 3 11 7 20 9 20 2 0 4
-9 4 -20z m-1380 -6 c0 -8 -4 -12 -10 -9 -5 3 -10 10 -10 16 0 5 5 9 10 9 6 0
10 -7 10 -16z m1190 -5 c0 -14 -17 -10 -23 5 -4 10 -1 13 9 9 7 -3 14 -9 14
-14z m-115 -27 c-3 -3 -11 0 -18 7 -9 10 -8 11 6 5 10 -3 15 -9 12 -12z
m-1175 -2 c0 -5 -4 -10 -10 -10 -5 0 -10 5 -10 10 0 6 5 10 10 10 6 0 10 -4
10 -10z m1336 -17 c-10 -10 -19 5 -10 18 6 11 8 11 12 0 2 -7 1 -15 -2 -18z
m97 12 c-3 -9 -8 -14 -10 -11 -3 3 -2 9 2 15 9 16 15 13 8 -4z m-33 -5 c0 -5
-4 -10 -10 -10 -5 0 -10 5 -10 10 0 6 5 10 10 10 6 0 10 -4 10 -10z m97 -25
c-4 -8 -12 -15 -19 -14 -10 0 -10 2 0 6 6 2 12 12 12 21 0 8 3 13 6 9 4 -3 4
-13 1 -22z m78 5 c3 -5 1 -10 -4 -10 -6 0 -11 5 -11 10 0 6 2 10 4 10 3 0 8
-4 11 -10z m-168 -36 c-3 -3 -12 -4 -19 -1 -8 3 -5 6 6 6 11 1 17 -2 13 -5z
m-16 -85 c-9 -23 -10 -22 -10 11 -1 23 2 31 9 24 7 -7 7 -19 1 -35z m109 0 c0
-24 -4 -38 -10 -34 -5 3 -10 19 -10 35 0 15 -6 31 -12 33 -7 3 -3 6 10 6 19 1
22 -4 22 -40z m100 29 c0 -4 -4 -8 -10 -8 -5 0 -9 -3 -9 -7 3 -21 -2 -43 -10
-43 -11 0 -19 29 -13 52 4 16 42 22 42 6z m-68 -25 c6 -22 -1 -43 -13 -43 -5
0 -9 14 -9 30 0 33 15 41 22 13z m121 -94 c-8 -8 -13 -8 -17 0 -4 6 -2 11 4
11 6 0 8 6 4 13 -6 10 -4 10 7 0 9 -10 10 -16 2 -24z m32 11 c3 -5 1 -10 -4
-10 -6 0 -11 5 -11 10 0 6 2 10 4 10 3 0 8 -4 11 -10z m-75 -30 c0 -5 -5 -10
-11 -10 -5 0 -7 5 -4 10 3 6 8 10 11 10 2 0 4 -4 4 -10z"/>
<path d="M2650 3240 c0 -6 7 -10 15 -10 8 0 15 2 15 4 0 2 -7 6 -15 10 -8 3
-15 1 -15 -4z"/>
<path d="M3530 3192 c0 -7 -6 -12 -14 -12 -8 0 -18 -4 -21 -10 -9 -15 8 -12
31 4 10 8 16 18 11 22 -4 4 -7 2 -7 -4z"/>
<path d="M2777 3174 c-4 -4 -4 -11 -1 -15 7 -13 44 -11 44 2 0 6 -9 8 -21 4
-15 -5 -19 -4 -15 4 8 12 3 15 -7 5z"/>
<path d="M2890 3140 c0 -13 18 -22 24 -11 3 5 -1 11 -9 15 -8 3 -15 1 -15 -4z"/>
<path d="M3553 3137 c1 -7 -7 -11 -18 -10 -11 1 -23 -4 -27 -10 -16 -25 -7
-27 32 -7 44 23 46 25 25 34 -8 3 -14 0 -12 -7z"/>
<path d="M1792 3128 c3 -7 13 -15 23 -17 17 -3 17 -2 3 13 -20 19 -31 21 -26
4z"/>
<path d="M3455 3080 c-8 -13 5 -13 25 0 13 8 13 10 -2 10 -9 0 -20 -4 -23 -10z"/>
<path d="M2470 3045 c0 -8 2 -15 4 -15 2 0 6 7 10 15 3 8 1 15 -4 15 -6 0 -10
-7 -10 -15z"/>
<path d="M3580 2960 c-30 -10 -59 -16 -65 -13 -6 4 -5 1 1 -6 8 -9 22 -8 58 4
54 19 73 14 27 -6 -17 -8 -31 -20 -31 -26 0 -7 -4 -13 -10 -13 -5 0 -10 -4
-10 -9 0 -5 27 -2 61 7 33 8 57 18 52 21 -16 11 -22 38 -10 50 17 17 -8 14
-73 -9z"/>
<path d="M3436 2917 c3 -10 9 -15 12 -12 3 3 0 11 -7 18 -10 9 -11 8 -5 -6z"/>
<path d="M2101 2821 c-48 -32 -69 -51 -60 -55 8 -3 5 -4 -6 -2 -13 3 -89 -42
-225 -132 -176 -117 -206 -141 -211 -167 -4 -16 -7 -108 -8 -202 l-1 -173
-101 62 -101 62 4 195 c4 156 7 195 18 193 11 -3 11 0 0 15 -8 10 -10 15 -6
11 12 -11 36 11 36 32 0 20 43 45 61 35 7 -5 10 -4 6 2 -4 6 8 20 26 32 33 21
31 29 -4 11 -11 -6 -25 -8 -31 -4 -7 5 -4 10 10 15 28 11 29 33 2 24 -14 -4
-20 -2 -20 8 0 11 -7 13 -22 9 -19 -5 -20 -7 -5 -10 20 -4 23 -18 5 -26 -9 -3
-8 -8 5 -16 9 -6 17 -16 17 -22 0 -7 -13 0 -28 15 -15 15 -33 27 -40 27 -7 0
-11 5 -10 11 2 6 -3 14 -10 16 -7 3 -12 1 -11 -4 5 -29 -2 -36 -17 -15 -12 17
-19 20 -34 12 -26 -14 -35 -12 -21 4 9 11 6 12 -16 8 -16 -3 -22 -7 -15 -10 6
-2 10 -8 6 -13 -10 -16 -31 -10 -42 14 -6 12 -11 17 -11 10 -1 -7 -8 -10 -16
-7 -11 4 -15 -1 -15 -17 l0 -24 -13 25 c-15 28 -15 31 7 34 9 1 16 5 16 9 0 4
-2 6 -3 5 -2 -2 -12 4 -22 12 -14 11 -17 11 -11 1 5 -7 4 -16 -1 -20 -14 -9
-119 -229 -138 -288 -12 -38 -14 -56 -6 -70 10 -17 10 -16 11 4 0 13 8 24 20
28 11 3 20 10 20 15 0 5 15 11 33 13 24 3 20 4 -16 5 -34 2 -47 6 -44 15 3 9
35 12 118 11 l114 0 3 -57 c2 -35 -1 -57 -8 -57 -5 0 -11 7 -11 15 -1 8 -3 20
-4 25 -1 6 -3 19 -4 30 -1 16 -8 20 -36 20 -35 0 -35 0 -35 -45 0 -43 1 -44
38 -50 20 -4 42 -8 49 -10 8 -3 12 -64 11 -230 0 -125 3 -229 6 -232 3 -4 0
-13 -7 -22 -11 -14 -10 -14 6 -1 11 8 31 14 45 15 27 0 27 1 32 88 l5 88 95
-57 c113 -68 128 -80 132 -106 3 -19 3 -19 25 1 28 26 33 26 33 1 0 -11 3 -20
8 -20 4 0 6 35 5 77 -1 50 3 80 10 85 9 6 9 8 0 8 -7 0 -13 11 -13 25 0 16 6
25 15 25 8 0 15 6 15 13 0 20 49 40 65 27 6 -5 15 -7 18 -3 4 3 8 -7 8 -23 1
-18 3 -22 6 -11 3 11 11 16 19 13 8 -3 14 -2 14 3 0 5 9 11 20 14 12 3 18 1
14 -5 -11 -17 -4 -342 7 -349 6 -3 11 -18 13 -34 2 -15 10 -32 19 -37 10 -5
17 -17 17 -26 1 -15 3 -14 17 3 9 11 14 14 11 5 -4 -11 3 -15 30 -17 22 -1 44
-11 60 -26 l24 -25 -37 -4 c-21 -2 -43 1 -53 9 -14 11 -14 13 -2 11 8 -2 18
-7 22 -13 5 -6 8 -5 8 2 0 18 -33 33 -71 33 -26 0 -30 -3 -21 -12 7 -7 13 -21
13 -33 1 -16 2 -17 6 -2 2 9 7 17 11 17 3 0 48 -28 99 -62 l93 -61 1 -131 c1
-72 4 -121 6 -108 5 28 24 24 39 -7 11 -22 12 -21 16 11 3 18 6 78 7 133 2 72
6 104 17 116 13 15 13 18 -1 32 -20 20 -19 22 8 48 l22 21 -22 -11 -23 -11 -2
375 c-2 206 -2 375 -1 375 1 0 48 -29 103 -65 l100 -65 1 -42 c0 -62 6 -171 9
-188 2 -8 6 27 10 78 5 65 12 98 23 109 17 18 20 15 30 -32 3 -11 5 12 6 51 1
66 -1 72 -24 84 -25 13 -25 15 -25 137 0 97 3 122 13 117 6 -5 63 -41 125 -81
l112 -73 2 -142 c2 -110 3 -122 5 -51 3 81 6 93 23 98 11 4 21 14 22 23 1 9 4
-14 8 -53 6 -61 7 -54 8 55 l1 125 -72 44 c-40 25 -166 107 -280 183 -115 77
-214 141 -220 143 -7 2 -45 -18 -86 -44z m212 -134 l117 -79 0 -120 c0 -110
-1 -120 -17 -113 -24 9 -182 103 -211 126 -23 18 -25 18 -65 -3 -23 -11 -77
-43 -120 -69 -43 -27 -80 -49 -83 -49 -2 0 -4 39 -4 87 0 108 -11 104 -13 -5
-2 -63 -6 -84 -21 -101 -11 -12 -26 -19 -33 -17 -7 3 -13 1 -13 -5 0 -14 -26
-39 -34 -32 -3 3 2 12 12 19 9 7 12 14 5 14 -6 0 -18 -7 -27 -15 -20 -21 -29
-20 -37 2 -7 16 -8 16 -8 1 -1 -9 4 -20 9 -23 6 -3 10 -10 10 -15 0 -12 -41
-3 -54 11 -8 9 -8 10 2 5 8 -5 12 0 12 12 0 11 -7 23 -16 26 -25 10 -36 7 -28
-6 5 -10 4 -10 -5 -2 -7 7 -11 32 -9 65 l3 53 244 163 c135 89 249 159 255
156 6 -4 64 -42 129 -86z m-1129 18 c-4 -8 -8 -15 -10 -15 -2 0 -4 7 -4 15 0
8 4 15 10 15 5 0 7 -7 4 -15z m116 -30 c0 -25 -4 -45 -10 -45 -5 0 -10 20 -10
45 0 25 5 45 10 45 6 0 10 -20 10 -45z m145 35 c-3 -5 -11 -10 -16 -10 -6 0
-7 5 -4 10 3 6 11 10 16 10 6 0 7 -4 4 -10z m-229 -45 c1 -8 -2 -13 -7 -9 -5
3 -9 12 -9 21 0 19 13 9 16 -12z m4 -50 c10 -12 10 -18 0 -30 -20 -24 -45 -14
-45 18 -1 31 24 37 45 12z m-50 -9 c0 -3 -4 -8 -10 -11 -5 -3 -10 -1 -10 4 0
6 5 11 10 11 6 0 10 -2 10 -4z m130 -21 c0 -8 -4 -17 -10 -20 -6 -4 -10 5 -10
20 0 15 4 24 10 20 6 -3 10 -12 10 -20z m-47 -82 c-7 -2 -21 -2 -30 0 -10 3
-4 5 12 5 17 0 24 -2 18 -5z m5 -31 c2 -7 -7 -12 -23 -12 -24 0 -26 2 -15 15
14 17 31 16 38 -3z m881 -309 c0 -131 -4 -245 -8 -253 -7 -18 -31 -25 -31 -9
0 5 -4 8 -9 4 -5 -3 -12 2 -14 10 -4 11 -5 10 -3 -2 0 -10 15 -25 31 -33 18
-9 30 -23 30 -35 0 -11 5 -24 10 -28 6 -4 -5 -6 -23 -3 -18 2 -30 0 -26 -5 3
-5 11 -9 19 -9 7 0 15 -7 19 -15 3 -8 1 -15 -5 -15 -6 0 -6 -7 1 -19 8 -16 11
-71 3 -71 -4 0 -70 38 -110 63 -58 37 -75 61 -72 99 2 18 8 39 13 47 8 11 8
13 0 8 -7 -4 -11 4 -10 23 1 25 5 30 26 31 24 0 24 1 4 9 -33 13 -36 26 -9 38
26 12 32 27 15 37 -5 3 -10 -1 -10 -9 0 -9 -7 -16 -15 -16 -16 0 -16 20 -1 32
6 4 6 12 -1 20 -6 7 -11 58 -12 114 -2 91 0 102 20 120 23 21 150 102 162 103
4 1 7 -106 6 -236z m-294 117 c3 -5 2 -10 -4 -10 -5 0 -13 5 -16 10 -3 6 -2
10 4 10 5 0 13 -4 16 -10z m-105 -60 c-6 -11 -15 -19 -20 -17 -5 1 -16 -7 -24
-18 -9 -12 -15 -15 -16 -7 0 18 28 45 39 38 5 -3 11 1 15 9 3 8 8 15 11 15 3
0 1 -9 -5 -20z m130 -4 c0 -2 -11 -6 -25 -8 -13 -3 -22 -1 -19 3 5 9 44 13 44
5z m-510 -258 c0 -6 -6 -5 -15 2 -8 7 -15 14 -15 16 0 2 7 1 15 -2 8 -4 15
-11 15 -16z"/>
<path d="M1877 2404 c6 -16 19 -18 27 -5 3 5 -3 11 -13 14 -14 3 -18 1 -14 -9z"/>
<path d="M1830 2370 c0 -19 3 -21 12 -12 9 9 9 15 0 24 -9 9 -12 7 -12 -12z"/>
<path d="M2014 2005 c4 -10 -1 -15 -16 -15 -17 0 -18 -3 -8 -15 7 -8 17 -12
24 -9 6 3 -2 -5 -17 -19 -25 -21 -26 -25 -12 -37 13 -11 15 -10 9 6 -4 15 -1
14 16 -5 16 -19 23 -22 29 -12 5 7 11 9 13 5 3 -5 3 -3 1 5 -2 8 6 23 17 33
11 10 20 23 20 29 0 5 -10 1 -22 -11 -31 -29 -38 -25 -34 20 3 30 0 40 -11 40
-9 0 -13 -6 -9 -15z m20 -86 c-3 -5 -10 -7 -15 -3 -5 3 -7 10 -3 15 3 5 10 7
15 3 5 -3 7 -10 3 -15z"/>
<path d="M2075 2010 c-3 -6 1 -7 9 -4 18 7 21 14 7 14 -6 0 -13 -4 -16 -10z"/>
<path d="M2045 1850 c3 -5 11 -10 16 -10 6 0 7 5 4 10 -3 6 -11 10 -16 10 -6
0 -7 -4 -4 -10z"/>
<path d="M2100 1849 c0 -5 -5 -7 -12 -3 -7 4 -8 3 -4 -5 6 -9 11 -9 22 0 17
14 18 19 4 19 -5 0 -10 -5 -10 -11z"/>
<path d="M2025 1810 c4 -6 11 -8 16 -5 14 9 11 15 -7 15 -8 0 -12 -5 -9 -10z"/>
<path d="M3477 2835 c9 -19 18 -33 21 -31 4 5 -26 66 -33 66 -3 0 3 -16 12
-35z"/>
<path d="M3570 2841 c0 -6 4 -13 10 -16 6 -3 7 1 4 9 -7 18 -14 21 -14 7z"/>
<path d="M1500 2799 c0 -5 5 -7 10 -4 6 3 10 8 10 11 0 2 -4 4 -10 4 -5 0 -10
-5 -10 -11z"/>
<path d="M3715 2769 c-89 -20 -88 -20 -76 -32 6 -6 11 -20 11 -30 0 -18 5 -19
52 -13 60 8 86 20 69 30 -6 4 -11 4 -11 1 0 -4 -7 0 -15 9 -8 8 -15 17 -15 20
0 3 7 6 15 6 8 0 15 5 15 10 0 6 -1 10 -2 9 -2 -1 -21 -5 -43 -10z"/>
<path d="M2542 2754 c-10 -12 -10 -14 2 -14 17 0 30 16 19 23 -5 3 -14 -1 -21
-9z"/>
<path d="M3021 2614 c0 -11 3 -14 6 -6 3 7 2 16 -1 19 -3 4 -6 -2 -5 -13z"/>
<path d="M3250 2531 l-65 -6 55 -6 c38 -4 59 -2 70 8 8 7 12 12 10 11 -3 -1
-34 -4 -70 -7z"/>
<path d="M980 2499 c0 -5 -4 -7 -10 -4 -5 3 -10 1 -10 -4 0 -13 3 -13 24 -5
18 7 22 24 6 24 -5 0 -10 -5 -10 -11z"/>
<path d="M1021 2438 c0 -9 -4 -25 -7 -35 -5 -17 -5 -17 6 0 6 10 9 25 7 35 -4
15 -5 15 -6 0z"/>
<path d="M3720 2430 c0 -14 5 -32 10 -40 8 -12 10 -10 10 10 0 14 -5 32 -10
40 -8 12 -10 10 -10 -10z"/>
<path d="M3270 2400 c0 -5 11 -10 25 -10 14 0 25 -5 25 -11 0 -6 -7 -9 -15 -5
-8 3 -15 1 -15 -3 0 -5 6 -12 13 -14 10 -4 10 -6 0 -6 -20 -1 -15 -18 7 -24
11 -3 20 -11 20 -17 0 -10 -3 -10 -14 -1 -10 9 -15 8 -20 -4 -4 -10 1 -15 14
-15 21 0 35 -16 21 -24 -5 -4 -11 -1 -13 6 -3 7 -7 5 -11 -6 -4 -10 -3 -15 3
-11 6 3 10 0 10 -7 0 -7 9 -2 19 11 18 23 19 24 25 5 3 -10 3 11 0 48 -6 93
-9 98 -55 98 -21 0 -39 -4 -39 -10z m80 -24 c0 -3 -4 -8 -10 -11 -5 -3 -10 -1
-10 4 0 6 5 11 10 11 6 0 10 -2 10 -4z"/>
<path d="M1243 2384 c-3 -8 -1 -20 5 -26 7 -7 8 -17 2 -28 -7 -13 -5 -21 4
-29 11 -10 15 -4 17 27 5 47 1 72 -12 72 -5 0 -12 -7 -16 -16z"/>
<path d="M1205 2379 c-11 -17 1 -21 15 -4 8 9 8 15 2 15 -6 0 -14 -5 -17 -11z"/>
<path d="M3636 2328 c3 -32 6 -115 6 -185 1 -71 3 -116 5 -100 3 15 9 27 14
27 5 0 9 11 9 25 0 14 6 36 14 48 11 18 12 34 3 85 -6 35 -15 61 -21 59 -6 -2
-16 19 -23 47 l-12 51 5 -57z"/>
<path d="M3828 2313 c7 -3 16 -2 19 1 4 3 -2 6 -13 5 -11 0 -14 -3 -6 -6z"/>
<path d="M783 2210 c-49 -20 -54 -96 -7 -127 31 -20 76 -4 93 33 15 34 14 48
-6 72 -22 25 -51 33 -80 22z"/>
<path d="M3244 2209 c-7 -13 9 -16 41 -8 17 3 28 8 25 9 -12 6 -62 5 -66 -1z"/>
<path d="M3502 2204 c-39 -27 -25 -122 16 -107 10 4 13 2 8 -5 -5 -8 2 -12 23
-12 48 0 79 66 51 110 -8 13 -10 12 -10 -2 0 -24 -12 -23 -27 1 -10 15 -10 21
0 24 7 3 1 6 -13 6 -14 1 -36 -6 -48 -15z m25 -43 c-9 -16 -17 -37 -18 -48 0
-16 -1 -16 -9 2 -14 32 -11 62 6 80 27 27 42 2 21 -34z"/>
<path d="M1770 2170 c-9 -6 -10 -10 -3 -10 6 0 15 5 18 10 8 12 4 12 -15 0z"/>
<path d="M3265 2150 c-3 -6 2 -13 12 -17 10 -3 25 -15 34 -26 16 -20 17 -20
30 4 l13 24 7 -25 c6 -22 7 -20 8 13 l1 37 -49 0 c-28 0 -53 -5 -56 -10z"/>
<path d="M3270 2110 c0 -5 5 -10 10 -10 6 0 10 5 10 10 0 6 -4 10 -10 10 -5 0
-10 -4 -10 -10z"/>
<path d="M3778 2103 c7 -3 16 -2 19 1 4 3 -2 6 -13 5 -11 0 -14 -3 -6 -6z"/>
<path d="M2417 2023 c-3 -5 -1 -17 4 -28 7 -17 8 -17 8 8 1 27 -4 34 -12 20z"/>
<path d="M1626 1907 c3 -10 9 -15 12 -12 3 3 0 11 -7 18 -10 9 -11 8 -5 -6z"/>
<path d="M2801 1904 c0 -11 3 -14 6 -6 3 7 2 16 -1 19 -3 4 -6 -2 -5 -13z"/>
<path d="M3748 1893 c12 -2 30 -2 40 0 9 3 -1 5 -23 4 -22 0 -30 -2 -17 -4z"/>
<path d="M2510 1850 c-9 -6 -10 -10 -3 -10 6 0 15 5 18 10 8 12 4 12 -15 0z"/>
<path d="M990 1805 c0 -9 5 -15 11 -13 6 2 11 8 11 13 0 5 -5 11 -11 13 -6 2
-11 -4 -11 -13z"/>
<path d="M1485 1780 c3 -5 8 -10 11 -10 2 0 4 5 4 10 0 6 -5 10 -11 10 -5 0
-7 -4 -4 -10z"/>
<path d="M2418 1713 c-2 -5 -1 -71 3 -148 l5 -140 2 132 c1 72 5 138 8 147 6
15 -12 24 -18 9z"/>
<path d="M3300 1710 c0 -5 5 -10 11 -10 5 0 7 5 4 10 -3 6 -8 10 -11 10 -2 0
-4 -4 -4 -10z"/>
<path d="M1415 1680 c-8 -13 5 -13 25 0 13 8 13 10 -2 10 -9 0 -20 -4 -23 -10z"/>
<path d="M1770 1686 c0 -2 7 -7 16 -10 8 -3 12 -2 9 4 -6 10 -25 14 -25 6z"/>
<path d="M1100 1610 c0 -5 5 -10 11 -10 5 0 7 5 4 10 -3 6 -8 10 -11 10 -2 0
-4 -4 -4 -10z"/>
<path d="M1205 1430 c-3 -5 1 -10 10 -10 9 0 13 5 10 10 -3 6 -8 10 -10 10 -2
0 -7 -4 -10 -10z"/>
<path d="M830 1153 c0 -5 16 -27 36 -49 l36 -39 -33 45 c-18 25 -34 47 -36 49
-2 2 -3 0 -3 -6z"/>
<path d="M2928 630 c-3 -17 0 -30 6 -30 6 0 2 -8 -9 -16 l-20 -16 20 4 c16 2
20 12 21 41 1 46 -12 58 -18 17z"/>
<path d="M2805 550 c-4 -6 -11 -8 -16 -5 -5 4 -9 1 -9 -4 0 -6 4 -11 9 -11 17
0 41 12 41 21 0 12 -17 11 -25 -1z"/>
<path d="M2170 445 c0 -8 4 -15 10 -15 5 0 7 7 4 15 -4 8 -8 15 -10 15 -2 0
-4 -7 -4 -15z"/>
</g>
</svg>
